<svg width="215" height="215" viewBox="0 0 215 215" fill="none" xmlns="http://www.w3.org/2000/svg">
<g clip-path="url(#clip0_144_175)">
<path d="M107.5 215C166.871 215 215 166.871 215 107.5C215 48.1294 166.871 0 107.5 0C48.1294 0 0 48.1294 0 107.5C0 166.871 48.1294 215 107.5 215Z" fill="url(#paint0_linear_144_175)"/>
<path d="M88.41 51.77C84.3654 51.77 80.4116 52.9694 77.0486 55.2165C73.6856 57.4635 71.0645 60.6574 69.5167 64.3941C67.9688 68.1309 67.5639 72.2427 68.3529 76.2096C69.142 80.1765 71.0897 83.8204 73.9497 86.6804C76.8097 89.5403 80.4535 91.488 84.4204 92.2771C88.3873 93.0661 92.4991 92.6612 96.2359 91.1134C99.9726 89.5655 103.166 86.9444 105.414 83.5814C107.661 80.2184 108.86 76.2646 108.86 72.22C108.855 66.798 106.698 61.5995 102.864 57.7655C99.0305 53.9316 93.8321 51.7753 88.41 51.77ZM88.41 86.21C85.6411 86.21 82.9343 85.3889 80.632 83.8506C78.3297 82.3123 76.5353 80.1258 75.4757 77.5676C74.4161 75.0094 74.1388 72.1945 74.679 69.4788C75.2192 66.763 76.5526 64.2685 78.5105 62.3105C80.4684 60.3526 82.963 59.0192 85.6787 58.479C88.3945 57.9388 91.2094 58.2161 93.7676 59.2757C96.3257 60.3353 98.5122 62.1297 100.051 64.432C101.589 66.7343 102.41 69.4411 102.41 72.21C102.41 75.923 100.935 79.484 98.3095 82.1095C95.684 84.735 92.123 86.21 88.41 86.21Z" fill="white"/>
<path d="M178.48 64.1899C177.162 63.3035 175.647 62.7543 174.067 62.5904C172.488 62.4265 170.892 62.653 169.42 63.2499L141.84 74.4699H125.72C119.729 74.4779 113.985 76.8615 109.748 81.0981C105.512 85.3347 103.128 91.0785 103.12 97.0699V101.38C103.12 102.694 103.237 104.006 103.47 105.3C99.5257 104.059 95.4149 103.428 91.28 103.43H85.54C80.2137 103.43 74.9396 104.48 70.0191 106.519C65.0986 108.558 60.6282 111.547 56.8633 115.314C53.0984 119.082 50.1129 123.555 48.0773 128.477C46.0418 133.399 44.9961 138.674 45 144V146.87C45 149.257 45.9482 151.546 47.6361 153.234C49.3239 154.922 51.6131 155.87 54 155.87H122.88C125.267 155.87 127.556 154.922 129.244 153.234C130.932 151.546 131.88 149.257 131.88 146.87V144.36H143C143.857 144.36 144.678 144.02 145.284 143.414C145.89 142.808 146.23 141.987 146.23 141.13V127.32L169.35 137.13C170.823 137.754 172.428 138.004 174.021 137.857C175.614 137.709 177.146 137.17 178.48 136.287C179.814 135.403 180.909 134.203 181.666 132.794C182.423 131.385 182.82 129.81 182.82 128.21V72.2099C182.812 70.6193 182.412 69.0552 181.655 67.6562C180.898 66.2573 179.807 65.0667 178.48 64.1899ZM125.36 146.84C125.36 147.506 125.096 148.144 124.625 148.615C124.154 149.086 123.516 149.35 122.85 149.35H54C53.3343 149.35 52.6959 149.086 52.2252 148.615C51.7545 148.144 51.49 147.506 51.49 146.84V144C51.49 134.961 55.0806 126.293 61.4718 119.902C67.8631 113.511 76.5314 109.92 85.57 109.92H91.31C96.6579 109.91 101.932 111.168 106.7 113.59C109.162 117.436 112.733 120.445 116.94 122.22L117.87 122.66L118.21 122.81V141.1C118.21 141.957 118.55 142.778 119.156 143.384C119.762 143.99 120.583 144.33 121.44 144.33H125.44L125.36 146.84ZM139.71 137.84H124.64V124.55C125.718 124.691 126.803 124.761 127.89 124.76H139.71V137.84ZM176.3 128.18C176.304 128.715 176.175 129.244 175.925 129.717C175.674 130.19 175.31 130.594 174.865 130.892C174.419 131.189 173.907 131.371 173.374 131.422C172.841 131.472 172.303 131.389 171.81 131.18L143.25 119.07C142.055 118.56 140.769 118.298 139.47 118.3H127.89C125.046 118.307 122.241 117.646 119.7 116.37L119.5 116.28C116.557 115.056 114.043 112.988 112.276 110.335C110.509 107.683 109.567 104.567 109.57 101.38V97.0699C109.578 92.7901 111.282 88.6879 114.31 85.6625C117.337 82.6371 121.44 80.9352 125.72 80.9299H143.1L171.86 69.2399C172.351 69.0391 172.883 68.9625 173.411 69.0169C173.938 69.0713 174.444 69.255 174.883 69.5518C175.322 69.8486 175.681 70.2492 175.928 70.7182C176.176 71.1871 176.303 71.7098 176.3 72.2399V128.18Z" fill="white"/>
<path fill-rule="evenodd" clip-rule="evenodd" d="M117.84 122.63L118.18 122.78V123.05L117.84 122.63Z" fill="white"/>
</g>
<defs>
<linearGradient id="paint0_linear_144_175" x1="107.5" y1="0" x2="107.5" y2="215" gradientUnits="userSpaceOnUse">
<stop stop-color="#2F7C67"/>
<stop offset="0.5" stop-color="#00A99D"/>
<stop offset="1" stop-color="#F9FECB"/>
</linearGradient>
<clipPath id="clip0_144_175">
<rect width="215" height="215" fill="white"/>
</clipPath>
</defs>
</svg>
