<svg width="215" height="215" viewBox="0 0 215 215" fill="none" xmlns="http://www.w3.org/2000/svg">
<g clip-path="url(#clip0_144_180)">
<path d="M107.5 215C166.871 215 215 166.871 215 107.5C215 48.1294 166.871 0 107.5 0C48.1294 0 0 48.1294 0 107.5C0 166.871 48.1294 215 107.5 215Z" fill="url(#paint0_linear_144_180)"/>
<path d="M131.36 124.19H126.64C117.661 124.198 109.052 127.768 102.703 134.115C96.3527 140.463 92.7806 149.071 92.77 158.05V160.41C92.7777 160.948 92.855 161.482 93 162H82.24L82.12 97.83C82.1042 96.2491 81.4651 94.7383 80.3416 93.626C79.218 92.5138 77.7009 91.8899 76.12 91.8899L56.37 92L104.32 54.57L152.41 91.8H145.01C143.278 87.8837 140.157 84.7479 136.248 82.9978C132.34 81.2478 127.922 81.0076 123.847 82.3237C119.772 83.6397 116.329 86.4186 114.183 90.124C112.036 93.8294 111.339 98.1986 112.225 102.388C113.11 106.578 115.517 110.291 118.979 112.81C122.442 115.33 126.715 116.477 130.974 116.031C135.233 115.585 139.175 113.577 142.041 110.395C144.906 107.213 146.491 103.082 146.49 98.8C146.49 98.61 146.49 98.43 146.49 98.25H153.84C155.067 98.2198 156.256 97.814 157.245 97.0873C158.234 96.3606 158.977 95.3479 159.372 94.1858C159.768 93.0238 159.798 91.7684 159.458 90.5889C159.118 89.4095 158.424 88.3627 157.47 87.5899L108 49.25C106.957 48.4374 105.672 47.9962 104.35 47.9962C103.028 47.9962 101.743 48.4374 100.7 49.25L51.3 87.7799C50.3498 88.5586 49.6615 89.6102 49.3281 90.7926C48.9947 91.975 49.0323 93.2312 49.4358 94.3915C49.8393 95.5519 50.5892 96.5604 51.5843 97.2808C52.5794 98.0013 53.7717 98.3989 55 98.4199H75.7L75.83 162.6C75.8458 164.181 76.4849 165.692 77.6084 166.804C78.7319 167.916 80.249 168.54 81.83 168.54L127.38 168.45C127.573 168.46 127.767 168.46 127.96 168.45L157.36 168.5C159.471 168.484 161.491 167.634 162.978 166.136C164.465 164.637 165.3 162.611 165.3 160.5V158.14C165.305 153.681 164.431 149.265 162.727 145.144C161.024 141.023 158.524 137.279 155.372 134.125C152.219 130.972 148.475 128.471 144.355 126.766C140.235 125.062 135.819 124.186 131.36 124.19ZM129.12 109.72C126.958 109.72 124.844 109.079 123.047 107.877C121.249 106.676 119.848 104.968 119.021 102.97C118.194 100.973 117.978 98.7744 118.401 96.6539C118.823 94.5335 119.865 92.5859 121.395 91.0577C122.924 89.5295 124.873 88.4894 126.994 88.0688C129.115 87.6481 131.313 87.866 133.31 88.6948C135.307 89.5236 137.013 90.9261 138.213 92.7248C139.413 94.5236 140.052 96.6378 140.05 98.8C140.045 101.696 138.891 104.472 136.842 106.519C134.793 108.566 132.016 109.717 129.12 109.72ZM158.79 160.41C158.793 160.816 158.64 161.207 158.363 161.503C158.086 161.799 157.705 161.977 157.3 162L102.3 161.9C101.705 161.863 101.123 161.705 100.59 161.437C100.058 161.169 99.5847 160.796 99.2 160.34V158.05C99.2106 150.777 102.105 143.804 107.249 138.662C112.393 133.52 119.367 130.628 126.64 130.62H131.36C138.632 130.628 145.605 133.52 150.747 138.663C155.89 143.805 158.782 150.778 158.79 158.05V160.41Z" fill="white"/>
</g>
<defs>
<linearGradient id="paint0_linear_144_180" x1="107.5" y1="0" x2="107.5" y2="215" gradientUnits="userSpaceOnUse">
<stop stop-color="#2F7C67"/>
<stop offset="0.5" stop-color="#00A99D"/>
<stop offset="1" stop-color="#F9FECB"/>
</linearGradient>
<clipPath id="clip0_144_180">
<rect width="215" height="215" fill="white"/>
</clipPath>
</defs>
</svg>
