<svg width="215" height="215" viewBox="0 0 215 215" fill="none" xmlns="http://www.w3.org/2000/svg">
<g clip-path="url(#clip0_144_158)">
<path d="M107.5 215C166.871 215 215 166.871 215 107.5C215 48.1294 166.871 0 107.5 0C48.1294 0 0 48.1294 0 107.5C0 166.871 48.1294 215 107.5 215Z" fill="url(#paint0_linear_144_158)"/>
<path d="M107.51 76.7C104.909 76.696 102.332 77.205 99.9274 78.1978C97.5229 79.1906 95.3377 80.6477 93.4969 82.4857C91.656 84.3238 90.1956 86.5067 89.1992 88.9097C88.2028 91.3127 87.6899 93.8886 87.6899 96.49C87.6886 99.0905 88.1999 101.666 89.1945 104.069C90.189 106.472 91.6474 108.655 93.4863 110.494C95.3252 112.332 97.5084 113.791 99.9113 114.785C102.314 115.78 104.889 116.291 107.49 116.29C110.09 116.293 112.666 115.783 115.069 114.789C117.473 113.796 119.657 112.339 121.497 110.501C123.336 108.663 124.796 106.48 125.792 104.078C126.787 101.676 127.3 99.1005 127.3 96.5C127.301 93.9003 126.79 91.3258 125.796 88.9236C124.802 86.5214 123.345 84.3386 121.507 82.4999C119.669 80.6611 117.487 79.2025 115.086 78.2074C112.684 77.2122 110.11 76.7 107.51 76.7ZM107.51 109.87C104.865 109.872 102.279 109.09 100.079 107.622C97.8792 106.154 96.164 104.066 95.1505 101.623C94.1371 99.1805 93.8709 96.4919 94.3856 93.8978C94.9004 91.3036 96.173 88.9203 98.0424 87.0495C99.9118 85.1787 102.294 83.9043 104.888 83.3876C107.482 82.8709 110.17 83.1351 112.614 84.1468C115.058 85.1584 117.146 86.8721 118.616 89.071C120.086 91.2699 120.87 93.8552 120.87 96.5C120.867 100.045 119.458 103.444 116.951 105.951C114.444 108.458 111.045 109.867 107.5 109.87H107.51Z" fill="white"/>
<path d="M160.6 84.41H160.46L148.46 82.41C147.892 80.7253 147.224 79.0757 146.46 77.47L153.46 67.47C154.212 66.3981 154.564 65.0961 154.454 63.7913C154.345 62.4864 153.78 61.2614 152.86 60.33L143.63 51C142.692 50.0647 141.452 49.4929 140.131 49.3867C138.811 49.2805 137.496 49.6467 136.42 50.42L126.55 57.51C124.93 56.7084 123.26 56.0136 121.55 55.43L119.48 43.63V43.39V43.33C119.236 42.0519 118.555 40.8986 117.553 40.0683C116.551 39.238 115.291 38.7825 113.99 38.78H100.99C99.6635 38.7813 98.3805 39.2535 97.3697 40.1124C96.3588 40.9713 95.6856 42.1612 95.47 43.47L93.47 55.47C91.7624 56.0293 90.0923 56.6973 88.47 57.47L78.58 50.4C77.5039 49.6392 76.194 49.2823 74.8807 49.392C73.5674 49.5017 72.3349 50.0712 71.4 51L62.19 60.2C61.2597 61.1292 60.6873 62.357 60.5738 63.6669C60.4604 64.9769 60.8132 66.2848 61.57 67.36L68.5 77.25C67.6726 78.9089 66.9609 80.623 66.37 82.38L54.5 84.38C53.1956 84.5977 52.0106 85.2707 51.1556 86.2795C50.3006 87.2883 49.8309 88.5676 49.83 89.89V102.89C49.8347 104.201 50.2984 105.469 51.1405 106.474C51.9827 107.478 53.15 108.156 54.44 108.39L66.28 110.49C66.8796 112.241 67.591 113.951 68.41 115.61L61.41 125.4C60.6423 126.482 60.2805 127.8 60.3885 129.122C60.4964 130.445 61.067 131.687 62 132.63L71.21 141.84C71.5632 142.194 71.9637 142.496 72.4 142.74C68.0889 149.3 65.7943 156.98 65.8 164.83V167.69C65.8157 170.056 66.7627 172.321 68.4359 173.994C70.109 175.667 72.3738 176.614 74.74 176.63H143.37C145.736 176.614 148.001 175.667 149.674 173.994C151.347 172.321 152.294 170.056 152.31 167.69V164.83C152.308 156.275 149.583 147.943 144.53 141.04L152.92 132.64C153.857 131.703 154.43 130.463 154.536 129.142C154.643 127.821 154.275 126.505 153.5 125.43L146.36 115.52C147.137 113.9 147.805 112.229 148.36 110.52L160.29 108.42H160.45H160.64C161.882 108.149 162.994 107.462 163.792 106.473C164.591 105.483 165.027 104.251 165.03 102.98V89.98C165.04 88.6849 164.606 87.4253 163.8 86.4117C162.994 85.398 161.864 84.6915 160.6 84.41ZM145.84 164.88V167.74C145.84 168.403 145.577 169.039 145.108 169.508C144.639 169.977 144.003 170.24 143.34 170.24H74.71C74.047 170.24 73.4111 169.977 72.9422 169.508C72.4734 169.039 72.21 168.403 72.21 167.74V164.88C72.2085 158.617 73.937 152.475 77.2051 147.131C80.4731 141.788 85.1535 137.452 90.73 134.6C90.96 134.47 91.2 134.36 91.44 134.24H91.51C91.99 134.01 92.51 133.79 92.95 133.59L93.95 133.18L94.78 132.87C95.21 132.72 95.64 132.57 96.07 132.44C96.5 132.31 96.87 132.2 97.28 132.09L97.65 131.99L98.23 131.85L98.81 131.72L99.81 131.51L100.71 131.35L101.34 131.26C101.85 131.18 102.34 131.12 102.88 131.08C103.94 130.99 105 130.94 106.06 130.94H111.78C114.477 130.953 117.163 131.289 119.78 131.94C120.58 132.127 121.37 132.347 122.15 132.6H122.21H122.31C122.877 132.78 123.437 132.98 123.99 133.2H124.07L124.81 133.51L125.59 133.85C126.257 134.163 126.923 134.497 127.59 134.85C127.88 135 128.17 135.16 128.45 135.33L128.63 135.43L128.71 135.48C128.98 135.63 129.26 135.8 129.52 135.97C129.78 136.14 130.02 136.28 130.27 136.45C130.52 136.62 130.77 136.78 131.01 136.96C131.25 137.14 131.6 137.38 131.89 137.59C132.18 137.8 132.74 138.24 133.16 138.59L133.85 139.17C134.08 139.36 134.3 139.56 134.52 139.77L135.18 140.39C135.4 140.6 135.62 140.81 135.82 141.03C136.02 141.25 136.25 141.47 136.45 141.69L136.72 141.98C136.809 142.069 136.892 142.162 136.97 142.26L137.04 142.35C142.648 148.52 145.781 156.543 145.84 164.88ZM158.71 102.22L145.49 104.55H145.41H145.2L143.41 104.86L142.86 106.78C142.114 109.351 141.088 111.833 139.8 114.18L138.8 115.96L139.71 117.23L139.99 117.61L140.41 118.18L147.88 128.56L140.34 136.1C132.788 128.577 122.56 124.358 111.9 124.37H106.18C104.95 124.37 103.73 124.43 102.51 124.54H102.41L101.21 124.68L100.27 124.81L99.42 124.95L98.96 125.03H98.84C98.6333 125.03 98.4233 125.07 98.21 125.15H98.12L97.46 125.29C97.09 125.37 96.71 125.46 96.34 125.56L95.2 125.86H95.14C94.35 126.09 93.56 126.34 92.78 126.62L91.62 127.05L90.62 127.45L89.62 127.88L89.18 128.08L89.09 128.13L88.2 128.56L86.85 129.24C85.98 129.71 85.13 130.24 84.31 130.75L75.31 136.63L67.09 128.42L74.53 118L74.86 117.58L76 116.12L75.29 114.86L74.96 114.26C73.6508 111.901 72.6109 109.402 71.86 106.81L71.31 104.89L69.31 104.5L56.2 102.17V90.6L69.31 88.35L71.31 88.02L71.88 86.08C72.6412 83.4794 73.6876 80.9708 75 78.6L76 76.85L74.85 75.21L67.24 64.21L75.4 56.05L86.1 63.7L86.38 63.91L87.9 65L89.67 64C92.049 62.7281 94.5608 61.722 97.16 61L99.16 60.44L99.49 58.44L101.59 45.22H113.2L115.52 58.46L115.86 60.46L117.78 61.02C120.38 61.7783 122.889 62.8213 125.26 64.13L127.02 65.13L128.66 63.95L139.5 56.16L147.71 64.37L139.96 75.37L138.88 77L139.88 78.71H139.82C141.132 81.0602 142.178 83.5488 142.94 86.13L143.51 88.07L145.51 88.4L158.78 90.57L158.71 102.22Z" fill="white"/>
</g>
<defs>
<linearGradient id="paint0_linear_144_158" x1="107.5" y1="0" x2="107.5" y2="215" gradientUnits="userSpaceOnUse">
<stop stop-color="#2F7C67"/>
<stop offset="0.5" stop-color="#00A99D"/>
<stop offset="1" stop-color="#F9FECB"/>
</linearGradient>
<clipPath id="clip0_144_158">
<rect width="215" height="215" fill="white"/>
</clipPath>
</defs>
</svg>
