<svg width="215" height="215" viewBox="0 0 215 215" fill="none" xmlns="http://www.w3.org/2000/svg">
<g clip-path="url(#clip0_144_170)">
<path d="M107.5 215C166.871 215 215 166.871 215 107.5C215 48.1294 166.871 0 107.5 0C48.1294 0 0 48.1294 0 107.5C0 166.871 48.1294 215 107.5 215Z" fill="url(#paint0_linear_144_170)"/>
<path d="M106.22 42.41C101.726 42.41 97.3337 43.7425 93.5974 46.239C89.8612 48.7355 86.9491 52.2839 85.2295 56.4355C83.5098 60.587 83.0599 65.1552 83.9366 69.5625C84.8132 73.9697 86.9771 78.0181 90.1545 81.1955C93.332 84.3729 97.3803 86.5368 101.788 87.4135C106.195 88.2901 110.763 87.8402 114.915 86.1206C119.066 84.401 122.614 81.4889 125.111 77.7526C127.607 74.0163 128.94 69.6236 128.94 65.13C128.935 59.1059 126.539 53.3301 122.28 49.0704C118.02 44.8107 112.244 42.4153 106.22 42.41ZM106.22 80.67C103.146 80.67 100.142 79.7586 97.5864 78.0511C95.0309 76.3435 93.0391 73.9165 91.8629 71.0769C90.6867 68.2374 90.379 65.1128 90.9786 62.0983C91.5782 59.0839 93.0583 56.3149 95.2316 54.1416C97.4049 51.9683 100.174 50.4882 103.188 49.8886C106.203 49.289 109.327 49.5968 112.167 50.7729C115.006 51.9491 117.433 53.9409 119.141 56.4965C120.849 59.052 121.76 62.0565 121.76 65.13C121.755 69.2499 120.116 73.1995 117.203 76.1126C114.289 79.0258 110.34 80.6647 106.22 80.67Z" fill="white"/>
<path fill-rule="evenodd" clip-rule="evenodd" d="M172.36 121C163.872 119.129 155.152 118.539 146.49 119.25C142.349 113.246 136.809 108.338 130.35 104.95C123.891 101.561 116.704 99.7941 109.41 99.8001H103C91.0653 99.8001 79.6193 104.541 71.1802 112.98C62.7411 121.419 58 132.865 58 144.8V148C58 150.652 59.0536 153.196 60.9289 155.071C62.8043 156.946 65.3478 158 68 158H98.65V164C98.6494 164.791 98.9099 165.559 99.3908 166.187C99.8718 166.814 100.546 167.265 101.31 167.47C107.581 168.952 114.007 169.674 120.45 169.62C126.698 169.656 132.927 168.931 139 167.46C151.91 164.24 165.35 165.03 170.8 166.28C171.319 166.399 171.858 166.4 172.377 166.282C172.897 166.164 173.383 165.931 173.8 165.6C174.224 165.264 174.566 164.837 174.801 164.351C175.037 163.864 175.159 163.331 175.16 162.79V124.53C175.168 123.71 174.895 122.912 174.385 122.269C173.875 121.627 173.16 121.179 172.36 121ZM99.89 123.36C99.5013 123.697 99.1894 124.113 98.9755 124.58C98.7616 125.048 98.6506 125.556 98.65 126.07V150.79H68C67.6303 150.795 67.2632 150.727 66.92 150.589C66.5769 150.451 66.2646 150.247 66.0013 149.987C65.7379 149.728 65.5288 149.418 65.3861 149.077C65.2434 148.736 65.17 148.37 65.17 148V144.81C65.1832 134.783 69.1738 125.17 76.266 118.082C83.3582 110.993 92.9728 107.008 103 107H109.38C114.948 106.994 120.449 108.219 125.489 110.587C130.528 112.956 134.981 116.409 138.53 120.7C138.03 120.83 137.53 120.96 137.05 121.11C126.43 124.3 111.92 123.89 102.71 122.57C102.209 122.498 101.698 122.534 101.212 122.676C100.725 122.817 100.275 123.061 99.89 123.39V123.36ZM168 158.56C157.712 157.424 147.304 158.081 137.24 160.5C124.91 163.59 112.15 162.31 105.82 161.11V130.11C113.02 130.82 127.19 131.52 139.14 127.94C149.56 124.81 161.81 126.31 168 127.44V158.56Z" fill="white"/>
<path fill-rule="evenodd" clip-rule="evenodd" d="M138.11 132.08C135.735 132.07 133.41 132.765 131.43 134.078C129.45 135.391 127.904 137.261 126.988 139.453C126.072 141.645 125.827 144.059 126.285 146.39C126.742 148.721 127.881 150.864 129.557 152.547C131.233 154.231 133.371 155.378 135.7 155.846C138.03 156.313 140.445 156.078 142.641 155.171C144.836 154.264 146.713 152.726 148.034 150.752C149.355 148.777 150.06 146.455 150.06 144.08C150.06 140.906 148.803 137.861 146.563 135.612C144.323 133.363 141.284 132.093 138.11 132.08ZM138.11 151.21C136.692 151.21 135.306 150.789 134.127 150.002C132.947 149.214 132.028 148.094 131.486 146.784C130.943 145.474 130.801 144.032 131.078 142.641C131.354 141.25 132.037 139.973 133.04 138.97C134.043 137.967 135.32 137.284 136.711 137.008C138.102 136.731 139.544 136.873 140.854 137.416C142.164 137.958 143.284 138.877 144.072 140.057C144.859 141.236 145.28 142.622 145.28 144.04C145.277 145.941 144.521 147.763 143.177 149.107C141.833 150.451 140.011 151.207 138.11 151.21Z" fill="white"/>
</g>
<defs>
<linearGradient id="paint0_linear_144_170" x1="107.5" y1="0" x2="107.5" y2="215" gradientUnits="userSpaceOnUse">
<stop stop-color="#2F7C67"/>
<stop offset="0.5" stop-color="#00A99D"/>
<stop offset="1" stop-color="#F9FECB"/>
</linearGradient>
<clipPath id="clip0_144_170">
<rect width="215" height="215" fill="white"/>
</clipPath>
</defs>
</svg>
