<svg width="215" height="215" viewBox="0 0 215 215" fill="none" xmlns="http://www.w3.org/2000/svg">
<g clip-path="url(#clip0_144_54)">
<path d="M107.5 215C166.871 215 215 166.871 215 107.5C215 48.1294 166.871 0 107.5 0C48.1294 0 0 48.1294 0 107.5C0 166.871 48.1294 215 107.5 215Z" fill="url(#paint0_linear_144_54)"/>
<path d="M108.87 41.09C104.947 41.088 101.112 42.2496 97.8493 44.4278C94.5867 46.6059 92.0435 49.7029 90.5414 53.3267C89.0393 56.9506 88.6457 60.9386 89.4105 64.7862C90.1754 68.6337 92.0642 72.168 94.8381 74.9419C97.6119 77.7158 101.146 79.6046 104.994 80.3694C108.841 81.1343 112.829 80.7407 116.453 79.2386C120.077 77.7365 123.174 75.1932 125.352 71.9307C127.53 68.6681 128.692 64.8328 128.69 60.91C128.685 55.655 126.595 50.6168 122.879 46.901C119.163 43.1851 114.125 41.0953 108.87 41.09ZM108.87 74.3C106.222 74.3 103.633 73.5147 101.431 72.0433C99.2289 70.572 97.5127 68.4808 96.4992 66.0341C95.4858 63.5874 95.2206 60.8951 95.7373 58.2977C96.2539 55.7003 97.5292 53.3144 99.4018 51.4418C101.274 49.5692 103.66 48.2939 106.258 47.7773C108.855 47.2606 111.547 47.5258 113.994 48.5392C116.441 49.5527 118.532 51.2689 120.003 53.4709C121.475 55.6729 122.26 58.2617 122.26 60.91C122.255 64.4596 120.842 67.8623 118.332 70.3723C115.822 72.8822 112.42 74.2947 108.87 74.3Z" fill="white"/>
<path fill-rule="evenodd" clip-rule="evenodd" d="M175.07 119.16C173.906 116.296 171.896 113.854 169.31 112.16C166.737 110.469 163.718 109.585 160.64 109.62C158.584 109.581 156.541 109.966 154.64 110.75C152.724 111.527 150.986 112.683 149.53 114.15L148.04 115.64C145.139 108.348 140.116 102.094 133.621 97.6887C127.126 93.2833 119.458 90.9288 111.61 90.9301H106.1C98.2258 90.9292 90.5337 93.2992 84.0253 97.7315C77.5169 102.164 72.4938 108.453 69.61 115.78C64.3179 116.377 59.2669 118.319 54.9393 121.423C50.6117 124.527 47.1518 128.689 44.89 133.51C42.9289 137.734 41.9412 142.344 42 147V147.5C41.9831 148.339 42.2823 149.153 42.8381 149.781C43.3939 150.409 44.1657 150.805 45 150.89C45.4361 150.912 45.8721 150.845 46.2814 150.692C46.6908 150.54 47.0649 150.307 47.381 150.005C47.6972 149.704 47.9488 149.342 48.1205 148.94C48.2923 148.539 48.3805 148.107 48.38 147.67V147C48.322 143.283 49.1081 139.601 50.6792 136.232C52.2502 132.863 54.5653 129.895 57.45 127.55C61.1897 124.543 65.709 122.663 70.4785 122.132C75.248 121.6 80.0701 122.439 84.38 124.55L90.03 127.41C90.479 127.639 90.9758 127.759 91.48 127.76H114.29C116.359 127.713 118.379 128.385 120.008 129.662C121.636 130.938 122.772 132.74 123.22 134.76C123.419 135.942 123.361 137.153 123.05 138.31C122.581 140.051 121.561 141.593 120.142 142.705C118.724 143.818 116.982 144.44 115.18 144.48H89.5C88.646 144.48 87.827 144.819 87.2231 145.423C86.6192 146.027 86.28 146.846 86.28 147.7C86.28 148.554 86.6192 149.373 87.2231 149.977C87.827 150.581 88.646 150.92 89.5 150.92H120.5C120.929 150.914 121.352 150.822 121.746 150.65C122.139 150.479 122.494 150.23 122.79 149.92L154.1 118.61C154.947 117.757 155.958 117.083 157.071 116.63C158.184 116.176 159.378 115.952 160.58 115.97H160.69C162.497 115.941 164.271 116.46 165.777 117.459C167.284 118.458 168.452 119.89 169.128 121.566C169.804 123.243 169.955 125.085 169.563 126.849C169.171 128.614 168.253 130.218 166.93 131.45L138.3 160.08C135.909 162.47 133.069 164.363 129.944 165.652C126.819 166.941 123.47 167.599 120.09 167.59H74.32C73.4804 167.573 72.665 167.872 72.0353 168.427C71.4056 168.983 71.0076 169.755 70.92 170.59C70.8969 171.027 70.9631 171.464 71.1145 171.875C71.266 172.285 71.4995 172.66 71.8008 172.978C72.1022 173.295 72.465 173.547 72.8672 173.72C73.2694 173.892 73.7024 173.981 74.14 173.98H120.14C124.365 173.99 128.551 173.166 132.456 171.555C136.362 169.943 139.911 167.576 142.9 164.59L171.47 136.01C173.721 133.874 175.273 131.108 175.922 128.074C176.572 125.04 176.289 121.88 175.11 119.01L175.07 119.16ZM129.66 134C129.66 133.85 129.66 133.71 129.59 133.56V133.45C128.844 129.965 126.91 126.848 124.119 124.631C121.328 122.415 117.853 121.237 114.29 121.3H92.29L87.29 118.78C83.9549 117.128 80.3517 116.085 76.65 115.7C79.3484 110.191 83.5394 105.55 88.746 102.306C93.9526 99.0616 99.9654 97.3445 106.1 97.3501H111.63C118.671 97.3501 125.524 99.6184 131.174 103.819C136.824 108.019 140.971 113.928 143 120.67L129.66 134Z" fill="white"/>
</g>
<defs>
<linearGradient id="paint0_linear_144_54" x1="107.5" y1="0" x2="107.5" y2="215" gradientUnits="userSpaceOnUse">
<stop stop-color="#2F7C67"/>
<stop offset="0.5" stop-color="#00A99D"/>
<stop offset="1" stop-color="#F9FECB"/>
</linearGradient>
<clipPath id="clip0_144_54">
<rect width="215" height="215" fill="white"/>
</clipPath>
</defs>
</svg>
