<svg width="215" height="215" viewBox="0 0 215 215" fill="none" xmlns="http://www.w3.org/2000/svg">
<g clip-path="url(#clip0_144_166)">
<path d="M107.5 215C166.871 215 215 166.871 215 107.5C215 48.1294 166.871 0 107.5 0C48.1294 0 0 48.1294 0 107.5C0 166.871 48.1294 215 107.5 215Z" fill="url(#paint0_linear_144_166)"/>
<path d="M105.37 34.78C100.753 34.7781 96.2399 36.1452 92.4003 38.7087C88.5607 41.2721 85.5676 44.9166 83.7996 49.1813C82.0315 53.4459 81.5678 58.1391 82.4673 62.6673C83.3667 67.1955 85.5889 71.3552 88.8526 74.6204C92.1164 77.8855 96.2751 80.1094 100.803 81.0108C105.331 81.9122 110.024 81.4506 114.29 79.6843C118.555 77.9181 122.201 74.9265 124.766 71.0881C127.331 67.2496 128.7 62.7367 128.7 58.12C128.695 51.9332 126.235 46.0012 121.862 41.6255C117.488 37.2499 111.557 34.788 105.37 34.78ZM105.37 75.01C102.027 75.01 98.7593 74.0186 95.9799 72.1612C93.2004 70.3037 91.0343 67.6637 89.7555 64.5751C88.4767 61.4864 88.1426 58.0879 88.7955 54.8093C89.4484 51.5308 91.059 48.5195 93.4235 46.1564C95.788 43.7933 98.8002 42.1845 102.079 41.5335C105.358 40.8826 108.756 41.2187 111.844 42.4993C114.932 43.78 117.571 45.9477 119.427 48.7282C121.283 51.5087 122.272 54.7771 122.27 58.12C122.259 62.5971 120.475 66.8875 117.307 70.0514C114.14 73.2153 109.847 74.9948 105.37 75V75.01Z" fill="white"/>
<path fill-rule="evenodd" clip-rule="evenodd" d="M197.59 90.8899C197.258 90.2873 196.786 89.7737 196.213 89.3924C195.64 89.0112 194.984 88.7737 194.3 88.6999L140.1 82.8099C139.311 82.7248 138.515 82.86 137.798 83.2004C137.082 83.5408 136.474 84.0732 136.042 84.7383C135.61 85.4035 135.371 86.1754 135.351 86.9683C135.331 87.7612 135.532 88.5441 135.93 89.2299L141.75 99.2299C138.97 100.29 136.26 101.3 133.58 102.3C126.136 97.6143 117.516 95.1351 108.72 95.1499H102C94.214 95.1469 86.5503 97.0869 79.7035 100.794C72.8567 104.501 67.0433 109.858 62.79 116.38C53.7 127.5 49.72 138.81 52.03 147.6C52.7466 150.442 54.2266 153.035 56.3099 155.097C58.3932 157.159 61.0005 158.612 63.85 159.3C67.2645 160.187 70.7823 160.614 74.31 160.57C82.8 160.57 92.69 158.57 103.31 155.22H145.6C148.231 155.22 150.754 154.175 152.614 152.314C154.475 150.454 155.52 147.931 155.52 145.3V141.95C155.525 139.146 155.274 136.348 154.77 133.59L159.07 131.47L166.56 143.65C166.963 144.304 167.534 144.838 168.214 145.197C168.893 145.555 169.657 145.724 170.424 145.686C171.192 145.648 171.935 145.405 172.576 144.982C173.218 144.558 173.733 143.971 174.07 143.28L197.69 94.8599C197.995 94.2394 198.146 93.554 198.128 92.8626C198.111 92.1712 197.926 91.4944 197.59 90.8899ZM102 101.56H108.7C114.498 101.552 120.228 102.798 125.5 105.21L121.06 106.82C117.69 108.03 114.06 109.33 110.2 110.76C106.34 112.19 102.1 113.76 97.52 115.45C88.17 119 82.27 120 79.49 118.53C77.9 117.7 76.8 115.73 75.82 111.96C75.7745 111.763 75.7074 111.572 75.62 111.39C82.9411 105.041 92.3093 101.55 102 101.56ZM149.07 145.28C149.07 145.738 148.98 146.192 148.804 146.616C148.629 147.039 148.372 147.424 148.048 147.748C147.724 148.072 147.339 148.329 146.916 148.504C146.492 148.68 146.038 148.77 145.58 148.77H121.18C130.18 145.14 139.53 140.92 148.73 136.5C148.967 138.3 149.087 140.114 149.09 141.93L149.07 145.28ZM170 136.93L163.52 126.41C162.961 125.493 162.078 124.821 161.046 124.526C160.014 124.231 158.908 124.336 157.95 124.82C123.66 141.93 85.87 158.65 65.57 153.07C63.8133 152.672 62.2013 151.795 60.9128 150.536C59.6242 149.278 58.7094 147.687 58.27 145.94C56.71 139.94 59.27 129.45 70.69 117.09C71.6705 120.116 73.751 122.664 76.52 124.23C81.26 126.7 88 125.9 99.8 121.47C108.93 118.05 116.21 115.47 123.26 112.87C131.01 110.07 138.33 107.43 146.42 104.32C147 104.096 147.525 103.749 147.958 103.303C148.39 102.856 148.721 102.321 148.927 101.734C149.132 101.147 149.207 100.523 149.148 99.904C149.088 99.2851 148.894 98.6866 148.58 98.1499L143.58 89.6599L190.52 94.7599L170 136.93Z" fill="white"/>
</g>
<defs>
<linearGradient id="paint0_linear_144_166" x1="107.5" y1="0" x2="107.5" y2="215" gradientUnits="userSpaceOnUse">
<stop stop-color="#2F7C67"/>
<stop offset="0.5" stop-color="#00A99D"/>
<stop offset="1" stop-color="#F9FECB"/>
</linearGradient>
<clipPath id="clip0_144_166">
<rect width="215" height="215" fill="white"/>
</clipPath>
</defs>
</svg>
