<svg width="215" height="215" viewBox="0 0 215 215" fill="none" xmlns="http://www.w3.org/2000/svg">
<g clip-path="url(#clip0_144_162)">
<path d="M107.5 215C166.871 215 215 166.871 215 107.5C215 48.1294 166.871 0 107.5 0C48.1294 0 0 48.1294 0 107.5C0 166.871 48.1294 215 107.5 215Z" fill="url(#paint0_linear_144_162)"/>
<path d="M108.46 70.3C104.588 70.306 100.802 69.1632 97.5793 67.0165C94.3571 64.8697 91.8441 61.8154 90.3583 58.2399C88.8725 54.6645 88.4807 50.7287 89.2324 46.9305C89.9841 43.1323 91.8456 39.6425 94.5813 36.9026C97.317 34.1627 100.804 32.2958 104.601 31.5383C108.398 30.7807 112.334 31.1665 115.912 32.6468C119.49 34.1272 122.548 36.6355 124.7 39.8544C126.851 43.0733 128 46.8582 128 50.73C127.995 55.9135 125.935 60.8836 122.273 64.5517C118.61 68.2198 113.643 70.2868 108.46 70.3ZM108.46 36.84C105.71 36.838 103.021 37.6518 100.734 39.1784C98.4464 40.705 96.6633 42.8758 95.61 45.4161C94.5567 47.9564 94.2806 50.7521 94.8166 53.4493C95.3526 56.1466 96.6767 58.6242 98.6212 60.5688C100.566 62.5134 103.043 63.8374 105.741 64.3734C108.438 64.9094 111.234 64.6333 113.774 63.58C116.314 62.5267 118.485 60.7436 120.012 58.4562C121.538 56.1688 122.352 53.48 122.35 50.73C122.347 47.047 120.883 43.5155 118.279 40.9112C115.674 38.3069 112.143 36.8427 108.46 36.84Z" fill="white"/>
<path fill-rule="evenodd" clip-rule="evenodd" d="M175.29 128.65C173.637 121.881 169.96 115.777 164.748 111.153C159.536 106.529 153.037 103.605 146.12 102.77C142.854 96.3274 137.867 90.916 131.711 87.1365C125.556 83.3571 118.473 81.3576 111.25 81.36H105.67C98.862 81.367 92.174 83.1525 86.2683 86.5394C80.3625 89.9264 75.4441 94.7974 72 100.67C64.0296 101.605 56.6416 105.312 51.1281 111.144C45.6147 116.975 42.3268 124.559 41.8394 132.569C41.352 140.58 43.6962 148.506 48.462 154.963C53.2278 161.42 60.1118 165.995 67.91 167.89L100.42 175.8C101.726 176.121 103.088 176.148 104.406 175.878C105.724 175.608 106.965 175.049 108.04 174.24C108.756 175.291 109.691 176.174 110.78 176.83C111.8 177.456 112.935 177.872 114.118 178.054C115.301 178.236 116.509 178.18 117.67 177.89L150.13 170C154.496 168.939 158.61 167.028 162.238 164.376C165.865 161.725 168.935 158.385 171.271 154.547C173.608 150.709 175.165 146.448 175.855 142.008C176.544 137.568 176.352 133.036 175.29 128.67V128.65ZM105.67 87H111.25C116.893 86.9972 122.445 88.4248 127.387 91.1493C132.329 93.8739 136.5 97.8065 139.51 102.58C137.639 102.722 135.783 103.017 133.96 103.46L117.7 107.46C115.356 108.036 113.335 109.516 112.08 111.577C110.824 113.639 110.436 116.113 111 118.46C111.227 119.416 111.609 120.328 112.13 121.16L105.53 119.55C106.408 118.339 106.974 116.931 107.178 115.449C107.382 113.968 107.218 112.459 106.7 111.056C106.182 109.653 105.326 108.399 104.208 107.406C103.09 106.412 101.744 105.71 100.29 105.36L84.04 101.36C82.3247 100.942 80.5795 100.657 78.82 100.51C81.9274 96.3155 85.9752 92.9082 90.6383 90.5618C95.3015 88.2155 100.45 86.9956 105.67 87ZM101.67 170.25L69.2 162.37C65.5591 161.484 62.1283 159.89 59.1036 157.678C56.0788 155.467 53.5192 152.681 51.5711 149.48C47.6365 143.016 46.4311 135.253 48.22 127.9C50.0089 120.547 54.6455 114.206 61.1099 110.271C67.5743 106.337 75.3369 105.131 82.69 106.92L98.95 110.92C99.802 111.166 100.526 111.731 100.971 112.498C101.416 113.265 101.548 114.174 101.339 115.036C101.13 115.898 100.597 116.645 99.8496 117.123C99.1026 117.601 98.2 117.772 97.33 117.6L83.1 114.09C82.7376 114.002 82.3613 113.986 81.9928 114.044C81.6243 114.101 81.2707 114.231 80.9522 114.425C80.3089 114.817 79.8477 115.448 79.67 116.18C79.4923 116.912 79.6127 117.685 80.0046 118.328C80.3966 118.971 81.028 119.432 81.76 119.61L96 123.07C96.4412 123.176 96.8888 123.253 97.34 123.3C97.5615 123.418 97.7966 123.509 98.04 123.57L101.3 124.36L88.17 127.56C86.6421 127.935 85.237 128.698 84.091 129.776C82.945 130.854 82.0969 132.21 81.6291 133.712C81.1613 135.214 81.0895 136.812 81.4208 138.349C81.7521 139.887 82.4752 141.314 83.52 142.49C82.1717 143.577 81.1598 145.024 80.6021 146.663C80.0445 148.303 79.964 150.067 80.37 151.75C80.7748 153.434 81.6567 154.965 82.91 156.16C82.8548 156.835 83.0418 157.508 83.4377 158.058C83.8335 158.607 84.4122 158.998 85.07 159.16L91.25 160.66C91.2892 161.102 91.3628 161.54 91.47 161.97C92.0456 164.314 93.5259 166.335 95.5872 167.59C97.6486 168.846 100.123 169.234 102.47 168.67L105.86 167.85C105.623 168.715 105.058 169.454 104.285 169.909C103.512 170.365 102.592 170.501 101.72 170.29L101.67 170.25ZM166.37 151.53C164.431 154.74 161.874 157.533 158.848 159.747C155.822 161.961 152.386 163.553 148.74 164.43L116.23 172.34C115.365 172.513 114.467 172.347 113.721 171.877C112.974 171.407 112.437 170.668 112.22 169.813C112.004 168.958 112.123 168.052 112.555 167.283C112.987 166.514 113.697 165.94 114.54 165.68L132.88 161.22C133.242 161.132 133.584 160.973 133.885 160.753C134.186 160.534 134.441 160.256 134.635 159.938C134.829 159.619 134.959 159.266 135.016 158.897C135.074 158.529 135.058 158.152 134.97 157.79C134.882 157.428 134.724 157.086 134.504 156.785C134.284 156.484 134.006 156.229 133.688 156.035C133.369 155.841 133.016 155.711 132.647 155.654C132.279 155.596 131.902 155.612 131.54 155.7L113.25 160.15H113.15L101.06 163.09C100.622 163.197 100.167 163.217 99.7217 163.148C99.2762 163.079 98.8485 162.923 98.4631 162.689C98.0777 162.455 97.7422 162.148 97.4758 161.784C97.2093 161.421 97.0171 161.008 96.91 160.57C96.803 160.132 96.7833 159.677 96.852 159.232C96.9207 158.786 97.0765 158.358 97.3105 157.973C97.5445 157.588 97.8521 157.252 98.2158 156.986C98.5795 156.719 98.9921 156.527 99.43 156.42L125.79 150H125.85C126.582 149.822 127.213 149.361 127.605 148.718C127.997 148.075 128.118 147.302 127.94 146.57C127.762 145.838 127.301 145.207 126.658 144.815C126.015 144.423 125.242 144.302 124.51 144.48L90 152.94C89.1301 153.112 88.2274 152.941 87.4804 152.463C86.7334 151.985 86.1997 151.238 85.9907 150.376C85.7818 149.514 85.9136 148.605 86.3588 147.838C86.804 147.071 87.5281 146.506 88.38 146.26L122.81 137.88H122.92C123.3 137.81 123.663 137.664 123.984 137.449C124.306 137.235 124.581 136.957 124.791 136.632C125.002 136.308 125.144 135.944 125.208 135.563C125.273 135.182 125.26 134.791 125.168 134.415C125.077 134.04 124.91 133.686 124.677 133.378C124.444 133.069 124.151 132.811 123.815 132.619C123.479 132.428 123.108 132.307 122.723 132.264C122.339 132.221 121.95 132.257 121.58 132.37L91.1 139.78C90.6621 139.887 90.2073 139.907 89.7617 139.838C89.3162 139.769 88.8885 139.613 88.5031 139.379C88.1177 139.145 87.7822 138.838 87.5158 138.474C87.2493 138.111 87.057 137.698 86.95 137.26C86.843 136.822 86.8233 136.367 86.892 135.922C86.9607 135.476 87.1165 135.048 87.3505 134.663C87.5845 134.278 87.8922 133.942 88.2558 133.676C88.6195 133.409 89.0321 133.217 89.47 133.11L120 125.66C120.242 125.603 120.474 125.512 120.69 125.39C121.141 125.347 121.589 125.273 122.03 125.17L136.26 121.7C136.992 121.521 137.623 121.058 138.014 120.414C138.405 119.77 138.524 118.997 138.345 118.265C138.166 117.533 137.704 116.902 137.059 116.511C136.415 116.12 135.642 116.001 134.91 116.18L120.69 119.65C119.835 119.801 118.954 119.624 118.224 119.153C117.494 118.682 116.97 117.952 116.756 117.11C116.542 116.268 116.655 115.377 117.071 114.614C117.487 113.852 118.176 113.275 119 113L135.26 109C140.744 107.664 146.501 107.984 151.803 109.921C157.104 111.857 161.712 115.323 165.044 119.879C168.376 124.436 170.281 129.878 170.519 135.517C170.756 141.156 169.316 146.739 166.38 151.56L166.37 151.53Z" fill="white"/>
</g>
<defs>
<linearGradient id="paint0_linear_144_162" x1="107.5" y1="0" x2="107.5" y2="215" gradientUnits="userSpaceOnUse">
<stop stop-color="#2F7C67"/>
<stop offset="0.5" stop-color="#00A99D"/>
<stop offset="1" stop-color="#F9FECB"/>
</linearGradient>
<clipPath id="clip0_144_162">
<rect width="215" height="215" fill="white"/>
</clipPath>
</defs>
</svg>
